# xmcd
#
# Track frame offsets: 
#        150
#        10125
#        20150
#        29250
#        39225
#        50975
#        63262
#        69112
#        80387
#        90037
#        98275
#        107150
#        118112
#        125000
#        135962
#        145025
#        153400
#        164587
#
# Disc length: 2335 seconds
#
# Revision: 0
# Processed by: cddbd v1.5.2PL0 Copyright (c) Steve Scherf et al.
# Submitted via: ExactAudioCopy v1.0b1
#
DISCID=dd091d12
DTITLE=Johnny Cash - The Man, The World, His Music
DYEAR=1991
DGENRE=Country
TTITLE0=Born To Lose
TTITLE1=Story Of A Broken Heart
TTITLE2=Two-Timin´ Woman
TTITLE3=Goodbye Little Darling
TTITLE4=Port Of Lonely Hearts
TTITLE5=Goodnight Irene
TTITLE6=My Treasure
TTITLE7=Mean Eyed Cat
TTITLE8=New Mexico
TTITLE9=Sugartime
TTITLE10=Life Goes On
TTITLE11=Belshazah
TTITLE12=You´re My Baby
TTITLE13=Fools Hall Of Fame
TTITLE14=Blue Train
TTITLE15=Country Boy
TTITLE16=Wide Open Road
TTITLE17=I Just Thought You´d Like To Know
EXTD=
EXTT0=
EXTT1=
EXTT2=
EXTT3=
EXTT4=
EXTT5=
EXTT6=
EXTT7=
EXTT8=
EXTT9=
EXTT10=
EXTT11=
EXTT12=
EXTT13=
EXTT14=
EXTT15=
EXTT16=
EXTT17=
PLAYORDER=
